<svg width="401" height="64" viewBox="0 0 401 64" fill="none" xmlns="http://www.w3.org/2000/svg">
<path fill-rule="evenodd" clip-rule="evenodd" d="M62.0334 0.557434C67.5613 2.27636 69.7111 7.82319 69.2655 11.8537H252.364L252.363 0.557434H62.0334ZM70.645 3.42345C71.7543 5.13822 72.4482 7.05784 72.712 8.98766H248.855L248.855 3.42345H70.645Z" fill="#1A1A1A"/>
<path fill-rule="evenodd" clip-rule="evenodd" d="M5.2263 54.2418V63.2239L54.3469 63.2262L54.3496 54.2403L5.2263 54.2418ZM8.73447 57.1078V60.3575L50.8395 60.3597L50.8403 57.1067L8.73447 57.1078Z" fill="#1A1A1A"/>
<path fill-rule="evenodd" clip-rule="evenodd" d="M314.52 9.75942L320.535 9.76057C321.669 9.76019 323.254 9.70918 324.309 9.3694C324.857 9.19894 325.276 8.95477 325.277 8.50539C325.277 8.21739 325.078 8.01822 324.758 7.84965C324.251 7.58017 323.531 7.45354 322.911 7.39685C321.471 7.25209 319.774 7.26418 318.319 7.26493L314.519 7.26342L314.52 9.75942ZM383.623 8.27898L396.112 0.55856L400.338 0.557785V11.7629L396.042 11.7622L396.04 4.05536L383.532 11.7633L379.327 11.7629V0.557785L383.619 0.557416L383.623 8.27898ZM370.474 2.61084H362.669L362.668 7.72228C362.666 8.45929 362.62 9.4291 362.261 10.126C361.933 10.7602 361.236 11.2002 360.384 11.4897C359.377 11.8257 358.21 11.9277 357.106 11.9277C356.2 11.9277 355.272 11.8593 354.373 11.7641L353.615 11.6862L354.613 9.64264L355.174 9.73259C355.575 9.79722 356.024 9.85657 356.44 9.85657C356.851 9.85657 357.403 9.81878 357.727 9.62943C358.027 9.45179 358.059 8.6645 358.059 8.41732L358.063 0.556641L375.082 0.557416L375.08 11.7615L370.475 11.7629L370.474 2.61084ZM337.477 2.60855V5.23082H351.383L351.385 7.27855H337.477V9.7069L352.914 9.70539L352.915 11.7629H332.879L332.878 0.556641L352.328 0.557416L352.327 2.61006L337.477 2.60855ZM314.52 2.61084L314.521 5.25008H319.882C321.643 5.24933 323.544 5.28635 325.284 5.50594C326.511 5.66052 327.747 5.96216 328.719 6.52682C329.584 7.02836 330.139 7.6705 330.141 8.47025C330.141 9.11995 329.742 9.68687 329.122 10.1604C328.377 10.7236 327.348 11.0849 326.33 11.3294C324.664 11.735 322.144 11.7622 320.396 11.7629H309.913V0.557785H327.496L327.495 2.61006L314.52 2.61084ZM291.011 2.61157L291.015 5.23082H304.916L304.917 7.27929L291.014 7.27855L291.012 9.7069L306.446 9.70764L306.448 11.7615L286.411 11.7622L286.411 0.557785L305.861 0.557416L305.861 2.61084L291.011 2.61157ZM269.788 9.002C270.047 8.70229 270.308 8.40297 270.569 8.10817L276.77 0.557785H282.254L282.251 11.7622L277.766 11.7629L277.765 4.24965L271.468 11.7629L267.735 11.7622L261.468 4.13774L261.469 11.7622L256.986 11.7629L256.985 0.557416L263.009 0.557785L269.128 8.22532C269.351 8.48459 269.573 8.7431 269.788 9.002Z" fill="#1A1A1A"/>
<path fill-rule="evenodd" clip-rule="evenodd" d="M394.853 34.092C395.025 34.1366 395.192 34.1888 395.356 34.2447C395.593 34.3214 395.823 34.4046 396.054 34.4976C397.197 34.9606 398.173 35.6091 398.924 36.452C399.413 37.0026 399.808 37.6077 400.06 38.2631C400.306 38.8966 400.417 39.5561 400.395 40.2217V40.244C400.393 40.7678 400.318 41.2928 400.176 41.8079C400.128 41.9807 400.074 42.1526 400.011 42.3246C399.882 42.6749 399.721 43.0178 399.536 43.3557L399.533 43.3594C399.45 43.5042 399.368 43.6497 399.279 43.7842C399.187 43.9241 399.095 44.0632 398.993 44.1977C398.472 44.9094 397.824 45.55 397.082 46.1166C396.535 46.5316 395.938 46.8993 395.3 47.2145C394.623 47.5513 393.91 47.8351 393.167 48.0649L393.007 48.1152L392.993 48.1175C392.829 48.1655 392.664 48.2112 392.499 48.2551C392.271 48.311 392.044 48.3666 391.814 48.4134C390.538 48.6784 389.214 48.7861 387.898 48.7853L331.305 48.783L331.307 20.5636H387.507L387.521 20.5594H387.706C388.411 20.5598 389.115 20.6131 389.809 20.7212C389.919 20.7397 390.031 20.7586 390.139 20.7771C390.659 20.8754 391.163 21.0043 391.653 21.1691L391.666 21.1706L391.757 21.2027C391.929 21.2636 392.096 21.3244 392.263 21.3913C392.429 21.4563 392.592 21.5224 392.752 21.5939C393.565 21.9537 394.313 22.3967 394.986 22.9175C395.439 23.2671 395.855 23.6484 396.223 24.0604C396.582 24.4572 396.894 24.8836 397.161 25.3314C397.416 25.768 397.615 26.2242 397.751 26.6959C397.882 27.1532 397.945 27.6204 397.948 28.089C397.948 28.7066 397.882 29.3257 397.736 29.9319C397.595 30.5192 397.384 31.0884 397.095 31.6387C396.822 32.1569 396.48 32.6513 396.053 33.0999C395.706 33.4718 395.303 33.8025 394.853 34.092ZM352.66 27.3463C352.659 32.3451 352.661 37.3432 352.658 42.342H376.803C377.174 42.342 377.543 42.294 377.885 42.1692C378.194 42.0547 378.448 41.8877 378.655 41.667L378.708 41.611C378.762 41.5509 378.824 41.4829 378.87 41.4168C378.923 41.3461 378.972 41.272 379.015 41.2089C379.225 40.871 379.331 40.5199 379.347 40.1408C379.356 39.8683 379.311 39.6082 379.208 39.3516C379.1 39.0908 378.933 38.8474 378.726 38.6267C378.512 38.3996 378.249 38.2351 377.921 38.1248C377.55 37.9974 377.135 37.9528 376.735 37.9524L352.666 37.9536L359.118 32.1361L376.444 32.1354L376.448 32.1323L376.808 32.1346C377.179 32.1308 377.553 32.0821 377.893 31.949C377.943 31.9309 377.991 31.9101 378.04 31.8867C378.301 31.7653 378.513 31.5998 378.689 31.4029C378.914 31.1629 379.093 30.8972 379.223 30.6088C379.341 30.3273 379.404 30.04 379.414 29.7577V29.7426L379.417 29.6726C379.417 29.5762 379.411 29.4802 379.401 29.3831C379.392 29.309 379.378 29.2312 379.366 29.1635L379.364 29.1537C379.28 28.7905 379.111 28.4586 378.864 28.157L378.857 28.1498L378.779 28.066C378.725 28.0043 378.663 27.9405 378.599 27.883C378.529 27.8267 378.457 27.7742 378.38 27.7243C377.925 27.4382 377.363 27.3509 376.8 27.3478L352.66 27.3463Z" fill="#1A1A1A"/>
<path fill-rule="evenodd" clip-rule="evenodd" d="M281.254 37.9536L288.306 32.1331H316.142L309.984 37.9528L281.254 37.9536Z" fill="#1A1A1A"/>
<path fill-rule="evenodd" clip-rule="evenodd" d="M285.673 41.7422C286.207 41.9164 286.758 42.0479 287.317 42.1371C287.946 42.2358 288.587 42.2838 289.228 42.2838L326.408 42.2845L319.188 48.7887L274.297 48.7838C272.614 48.7838 270.946 48.6005 269.337 48.2048C269.028 48.1303 268.723 48.0472 268.421 47.9561C268.15 47.876 267.879 47.7921 267.61 47.6976L267.608 47.6968L267.539 47.6738C267.532 47.6704 267.528 47.6689 267.523 47.6673L267.271 47.577L267.266 47.5736C266.315 47.2244 265.405 46.8147 264.537 46.3426C263.618 45.8388 262.758 45.2669 261.969 44.6305C260.832 43.7147 259.862 42.6742 259.078 41.5351C258.924 41.3079 258.773 41.0792 258.635 40.8479C258.533 40.6801 258.433 40.5119 258.338 40.3426L258.332 40.3392L258.223 40.1306C257.288 38.3708 256.849 36.5075 256.849 34.5879C256.85 33.6313 256.954 32.6747 257.188 31.7355C257.416 30.8205 257.766 29.9289 258.227 29.0705C258.87 27.8724 259.697 26.7488 260.717 25.7355C260.914 25.5435 261.117 25.3545 261.323 25.1716C261.464 25.0457 261.611 24.9225 261.758 24.7993L261.76 24.7933L261.983 24.6202C261.991 24.6107 262.005 24.6013 262.015 24.5933L262.063 24.5597C262.828 23.9587 263.656 23.422 264.54 22.9496C265.478 22.4465 266.476 22.0123 267.513 21.6563C268.393 21.3531 269.313 21.1124 270.245 20.9332C270.426 20.8988 270.608 20.8659 270.79 20.8365C271.942 20.6501 273.111 20.5598 274.284 20.5613L274.292 20.5628L326.327 20.5621L319.124 27.3478L289.228 27.3471C287.438 27.3486 285.751 27.6831 284.213 28.4322C283.924 28.5724 283.643 28.7266 283.373 28.8929C283.143 29.0354 282.923 29.1843 282.705 29.34L282.571 29.4432C281.685 30.1129 280.974 30.8927 280.499 31.7997C280.016 32.7242 279.807 33.7031 279.807 34.7036C279.807 35.2134 279.873 35.721 280 36.2218C280.125 36.7154 280.313 37.1943 280.562 37.6576C280.611 37.7438 280.658 37.8311 280.708 37.9165L280.795 38.0628L280.859 38.1592C281.035 38.4358 281.227 38.7004 281.441 38.9555C281.775 39.3618 282.155 39.7364 282.573 40.0803L282.577 40.0826C283.184 40.5777 283.867 40.9953 284.618 41.3309C284.764 41.3982 284.916 41.4621 285.067 41.5229C285.225 41.583 285.384 41.6413 285.54 41.6957L285.673 41.7422Z" fill="#1A1A1A"/>
<path fill-rule="evenodd" clip-rule="evenodd" d="M231.784 42.5604L222.95 48.7838H177.858V36.8689C177.859 33.3879 177.653 29.1601 179.653 25.9978C179.789 25.7778 179.943 25.5616 180.101 25.3515C180.255 25.1489 180.427 24.949 180.601 24.7517L180.618 24.7354C181.61 23.6499 182.95 22.8502 184.433 22.2625C184.755 22.1336 185.081 22.0161 185.412 21.908C185.761 21.7931 186.113 21.6914 186.464 21.6003L186.477 21.5969C187.705 21.2715 188.996 21.0587 190.27 20.9117C190.555 20.878 190.838 20.8486 191.121 20.8202C193.115 20.6286 195.13 20.5621 197.134 20.5628L197.16 20.5598H252.364V51.7466C252.365 52.6487 252.271 53.5502 252.049 54.4323C251.332 57.287 249.378 59.5158 246.345 61.0325C243.539 62.4355 240.291 62.9079 237.06 63.1214C236.147 63.18 235.217 63.2254 234.299 63.2239L57.8192 63.2254L57.8181 54.2403L225.607 54.2426C227.233 54.2418 229.212 54.1122 230.38 53.0615C231.612 51.959 231.786 50.118 231.784 48.7029V42.5604ZM231.783 27.3478H206.766L206.765 27.3494L206.473 27.3527C205.393 27.3614 204.186 27.4261 203.145 27.6797C202.467 27.8452 201.769 28.1132 201.339 28.5917C200.991 28.9753 200.751 29.4168 200.584 29.8703C200.546 29.972 200.516 30.0744 200.485 30.1783C200.264 30.9206 200.192 31.7098 200.189 32.4683L200.19 32.4801L200.191 42.0918L231.782 42.0925L231.783 27.3478ZM151.061 37.8629L151.059 20.5628H172.696L172.695 35.6715C172.696 36.8016 172.493 37.9199 172.112 39.0077C172.037 39.2242 171.953 39.4434 171.865 39.6604C171.786 39.8513 171.701 40.0402 171.611 40.2296L171.598 40.281L171.542 40.3706C171.018 41.4519 170.361 42.4829 169.558 43.4448C169.404 43.6296 169.245 43.8145 169.08 43.9963C168.918 44.1743 168.751 44.3504 168.582 44.5216L168.56 44.5409L168.543 44.559C167.937 45.1653 167.269 45.7262 166.543 46.2379C165.822 46.7466 165.042 47.2002 164.219 47.5955C163.42 47.9784 162.565 48.283 161.673 48.4864C160.809 48.6855 159.918 48.7853 159.019 48.7838L105.864 48.7853L112.936 42.2845L143.525 42.2838C144.584 42.2845 145.667 42.1965 146.686 41.9493C147.534 41.7429 148.324 41.4213 149.004 40.9534C149.592 40.5474 150.111 40.0739 150.482 39.5217C150.824 39.0099 151.016 38.4653 151.061 37.8829V37.8629Z" fill="#1A1A1A"/>
<path fill-rule="evenodd" clip-rule="evenodd" d="M108.96 35.6995L108.951 35.6949L108.92 35.6635C108.684 35.4394 108.467 35.1994 108.279 34.9508C108.074 34.6877 107.895 34.4148 107.734 34.1351C106.726 32.3588 106.47 30.1942 106.47 28.2587L106.47 20.5628L128.106 20.5613L128.106 26.1872L128.112 26.1966V26.3856C128.111 27.2742 128.216 28.2164 128.554 29.0664C128.598 29.1851 128.653 29.3019 128.707 29.4153C128.97 29.9455 129.341 30.4213 129.856 30.8133L129.858 30.8174C130.026 30.9399 130.204 31.051 130.39 31.1534C130.588 31.2623 130.798 31.3606 131.013 31.4468C132.41 31.9971 134.18 32.1365 135.71 32.1361L150.711 32.1354L143.969 38.0088H118.403C115.357 38.0095 111.121 37.7109 108.96 35.6995Z" fill="#1A1A1A"/>
<path fill-rule="evenodd" clip-rule="evenodd" d="M54.3504 27.3463L54.3485 48.7838L33.0644 48.7861L33.0637 20.5628L87.2148 20.5613C89.9962 20.5613 93.0905 20.8482 95.5759 21.9386C95.9758 22.1151 96.3625 22.3143 96.7302 22.5327C97.0133 22.7009 97.2843 22.8895 97.5371 23.0838L97.5526 23.0902L97.7318 23.2384C98.5992 23.9557 99.326 24.7675 99.8691 25.6761C99.97 25.8458 100.064 26.0208 100.151 26.1943C100.673 27.2462 100.928 28.354 100.963 29.4803L100.973 29.4946L100.968 29.7335L100.967 29.9497L100.956 29.9671C100.899 31.0076 100.585 32.0012 99.9972 32.9283C99.3331 33.9711 98.3701 34.8468 97.2563 35.5797C94.4595 37.4161 90.782 37.9528 87.2825 37.9525L54.9619 37.9528L61.8588 32.1365L77.444 32.1339C78.0586 32.1339 78.6867 32.0428 79.1996 31.7533C79.2831 31.7045 79.3602 31.6539 79.4332 31.5964C79.511 31.5363 79.5802 31.4702 79.646 31.4044L79.7337 31.3141C79.9268 31.0975 80.0829 30.8632 80.1906 30.6088C80.3146 30.328 80.3716 30.0343 80.3724 29.7399C80.3731 29.3083 80.2515 28.9081 80.0031 28.5237C79.954 28.4458 79.9003 28.3725 79.8444 28.301C79.7866 28.227 79.7234 28.1589 79.6603 28.0962L79.6513 28.0875C79.4559 27.8812 79.2128 27.7198 78.9218 27.5996L78.9271 27.5988C78.87 27.5765 78.8175 27.5572 78.7593 27.5387C78.3481 27.3981 77.8904 27.3516 77.4493 27.3471L77.4455 27.3486L54.3504 27.3463Z" fill="#1A1A1A"/>
<path fill-rule="evenodd" clip-rule="evenodd" d="M22.413 11.8537L22.4152 48.7887H5.47879L0.462219 0.560092L45.809 0.557804C46.6771 0.557426 47.5438 0.586536 48.4059 0.640961C51.6472 0.846189 55.045 1.47889 57.8464 2.85955C60.8644 4.34793 62.7779 6.09142 63.5131 8.99977C63.6586 9.57955 63.7504 10.1714 63.7943 10.7618L63.8759 11.8552L22.413 11.8537Z" fill="#1A1A1A"/>
<path fill-rule="evenodd" clip-rule="evenodd" d="M258.784 54.2434C258.378 60.9157 254.363 62.1002 252.364 63.2254L400.371 63.2269L400.369 54.2403L258.784 54.2434ZM261.903 57.1093C261.64 58.2345 261.237 59.331 260.644 60.359L396.862 60.3605V57.1067L261.903 57.1093Z" fill="#1A1A1A"/>
</svg>
